<mxfile host="app.diagrams.net" agent="Mozilla/5.0 (Windows NT 10.0; Win64; x64) AppleWebKit/537.36 (KHTML, like Gecko) Chrome/139.0.0.0 Safari/537.36" version="28.2.0">
  <diagram name="Page-1" id="JE2Ti2y0dNud4Ru-ziMW">
    <mxGraphModel dx="2837" dy="1473" grid="1" gridSize="10" guides="1" tooltips="1" connect="1" arrows="1" fold="1" page="0" pageScale="1" pageWidth="1169" pageHeight="827" math="0" shadow="0">
      <root>
        <mxCell id="0" />
        <mxCell id="1" parent="0" />
        <mxCell id="ANGQTq8wLJbYGgAcVob9-1" value="&lt;div&gt;&lt;br&gt;&lt;/div&gt;" style="rounded=1;whiteSpace=wrap;html=1;strokeColor=none;fillColor=#B8E9E9;shadow=1;movable=1;resizable=1;rotatable=1;deletable=1;editable=1;locked=0;connectable=1;fontFamily=Helvetica;" parent="1" vertex="1">
          <mxGeometry x="90.5" y="0.91" width="145" height="120" as="geometry" />
        </mxCell>
        <mxCell id="ANGQTq8wLJbYGgAcVob9-2" value="Conv Block 2" style="text;html=1;align=center;verticalAlign=middle;whiteSpace=wrap;rounded=0;strokeColor=none;fontStyle=1;fontSize=15;movable=1;resizable=1;rotatable=1;deletable=1;editable=1;locked=0;connectable=1;shadow=1;fontFamily=Helvetica;" parent="1" vertex="1">
          <mxGeometry x="68" y="10.91" width="190" height="30" as="geometry" />
        </mxCell>
        <mxCell id="ANGQTq8wLJbYGgAcVob9-3" value="3 x 3 Conv" style="text;html=1;align=center;verticalAlign=middle;whiteSpace=wrap;rounded=0;strokeColor=none;movable=1;resizable=1;rotatable=1;deletable=1;editable=1;locked=0;connectable=1;shadow=1;fontFamily=Helvetica;" parent="1" vertex="1">
          <mxGeometry x="68" y="70.91" width="190" height="30" as="geometry" />
        </mxCell>
        <mxCell id="ANGQTq8wLJbYGgAcVob9-5" value="&lt;br&gt;&lt;div&gt;&lt;div&gt;16 → 32 → 32&lt;/div&gt;&lt;div&gt;&lt;br&gt;&lt;/div&gt;&lt;/div&gt;" style="text;html=1;align=center;verticalAlign=middle;whiteSpace=wrap;rounded=0;strokeColor=none;movable=1;resizable=1;rotatable=1;deletable=1;editable=1;locked=0;connectable=1;shadow=1;fontFamily=Helvetica;" parent="1" vertex="1">
          <mxGeometry x="68" y="40.91" width="190" height="30" as="geometry" />
        </mxCell>
        <mxCell id="ANGQTq8wLJbYGgAcVob9-7" value="&lt;div&gt;&lt;br&gt;&lt;/div&gt;" style="rounded=1;whiteSpace=wrap;html=1;strokeColor=none;fillColor=#B8E9E9;shadow=1;movable=1;resizable=1;rotatable=1;deletable=1;editable=1;locked=0;connectable=1;fontFamily=Helvetica;" parent="1" vertex="1">
          <mxGeometry x="436" y="5" width="145" height="120" as="geometry" />
        </mxCell>
        <mxCell id="ANGQTq8wLJbYGgAcVob9-8" value="Conv Block 3" style="text;html=1;align=center;verticalAlign=middle;whiteSpace=wrap;rounded=0;strokeColor=none;fontStyle=1;fontSize=15;movable=1;resizable=1;rotatable=1;deletable=1;editable=1;locked=0;connectable=1;shadow=1;fontFamily=Helvetica;" parent="1" vertex="1">
          <mxGeometry x="413.5" y="15" width="190" height="30" as="geometry" />
        </mxCell>
        <mxCell id="ANGQTq8wLJbYGgAcVob9-9" value="3 x 3 Conv" style="text;html=1;align=center;verticalAlign=middle;whiteSpace=wrap;rounded=0;strokeColor=none;movable=1;resizable=1;rotatable=1;deletable=1;editable=1;locked=0;connectable=1;shadow=1;fontFamily=Helvetica;" parent="1" vertex="1">
          <mxGeometry x="413.5" y="75" width="190" height="30" as="geometry" />
        </mxCell>
        <mxCell id="ANGQTq8wLJbYGgAcVob9-10" value="&lt;br&gt;&lt;div&gt;&lt;div&gt;32 → 64 → 64&lt;/div&gt;&lt;div&gt;&lt;br&gt;&lt;/div&gt;&lt;/div&gt;" style="text;html=1;align=center;verticalAlign=middle;whiteSpace=wrap;rounded=0;strokeColor=none;movable=1;resizable=1;rotatable=1;deletable=1;editable=1;locked=0;connectable=1;shadow=1;fontFamily=Helvetica;" parent="1" vertex="1">
          <mxGeometry x="413.5" y="45" width="190" height="30" as="geometry" />
        </mxCell>
        <mxCell id="ANGQTq8wLJbYGgAcVob9-15" value="&lt;div&gt;&lt;br&gt;&lt;/div&gt;" style="rounded=1;whiteSpace=wrap;html=1;strokeColor=none;fillColor=#FFDDC4;shadow=1;movable=1;resizable=1;rotatable=1;deletable=1;editable=1;locked=0;connectable=1;fontFamily=Helvetica;" parent="1" vertex="1">
          <mxGeometry x="261" y="5.91" width="150" height="110" as="geometry" />
        </mxCell>
        <mxCell id="ANGQTq8wLJbYGgAcVob9-16" value="MaxPool" style="text;html=1;align=center;verticalAlign=middle;whiteSpace=wrap;rounded=0;strokeColor=none;fontStyle=1;fontSize=15;movable=1;resizable=1;rotatable=1;deletable=1;editable=1;locked=0;connectable=1;shadow=1;fontFamily=Helvetica;" parent="1" vertex="1">
          <mxGeometry x="241" y="15.91" width="190" height="30" as="geometry" />
        </mxCell>
        <mxCell id="ANGQTq8wLJbYGgAcVob9-17" value="2 x 2 Conv" style="text;html=1;align=center;verticalAlign=middle;whiteSpace=wrap;rounded=0;strokeColor=none;movable=1;resizable=1;rotatable=1;deletable=1;editable=1;locked=0;connectable=1;shadow=1;fontFamily=Helvetica;" parent="1" vertex="1">
          <mxGeometry x="241" y="45.91" width="190" height="30" as="geometry" />
        </mxCell>
        <mxCell id="ANGQTq8wLJbYGgAcVob9-18" value="&lt;div&gt;&lt;div&gt;Stride = 2&lt;/div&gt;&lt;/div&gt;" style="text;html=1;align=center;verticalAlign=middle;whiteSpace=wrap;rounded=0;strokeColor=none;movable=1;resizable=1;rotatable=1;deletable=1;editable=1;locked=0;connectable=1;shadow=1;fontFamily=Helvetica;" parent="1" vertex="1">
          <mxGeometry x="241" y="75.91" width="190" height="30" as="geometry" />
        </mxCell>
        <mxCell id="ANGQTq8wLJbYGgAcVob9-19" value="&lt;div&gt;&lt;br&gt;&lt;/div&gt;" style="rounded=1;whiteSpace=wrap;html=1;strokeColor=none;fillColor=#FFDDC4;shadow=1;movable=1;resizable=1;rotatable=1;deletable=1;editable=1;locked=0;connectable=1;fontFamily=Helvetica;" parent="1" vertex="1">
          <mxGeometry x="-84" y="5" width="150" height="110" as="geometry" />
        </mxCell>
        <mxCell id="ANGQTq8wLJbYGgAcVob9-20" value="MaxPool" style="text;html=1;align=center;verticalAlign=middle;whiteSpace=wrap;rounded=0;strokeColor=none;fontStyle=1;fontSize=15;movable=1;resizable=1;rotatable=1;deletable=1;editable=1;locked=0;connectable=1;shadow=1;fontFamily=Helvetica;" parent="1" vertex="1">
          <mxGeometry x="-104" y="15" width="190" height="30" as="geometry" />
        </mxCell>
        <mxCell id="ANGQTq8wLJbYGgAcVob9-21" value="2 x 2 Conv" style="text;html=1;align=center;verticalAlign=middle;whiteSpace=wrap;rounded=0;strokeColor=none;movable=1;resizable=1;rotatable=1;deletable=1;editable=1;locked=0;connectable=1;shadow=1;fontFamily=Helvetica;" parent="1" vertex="1">
          <mxGeometry x="-104" y="45" width="190" height="30" as="geometry" />
        </mxCell>
        <mxCell id="ANGQTq8wLJbYGgAcVob9-22" value="&lt;div&gt;&lt;div&gt;Stride = 2&lt;/div&gt;&lt;/div&gt;" style="text;html=1;align=center;verticalAlign=middle;whiteSpace=wrap;rounded=0;strokeColor=none;movable=1;resizable=1;rotatable=1;deletable=1;editable=1;locked=0;connectable=1;shadow=1;fontFamily=Helvetica;" parent="1" vertex="1">
          <mxGeometry x="-104" y="75" width="190" height="30" as="geometry" />
        </mxCell>
        <mxCell id="ANGQTq8wLJbYGgAcVob9-24" value="&lt;div&gt;&lt;br&gt;&lt;/div&gt;" style="rounded=1;whiteSpace=wrap;html=1;strokeColor=none;fillColor=#FFDDC4;shadow=1;movable=1;resizable=1;rotatable=1;deletable=1;editable=1;locked=0;connectable=1;fontFamily=Helvetica;" parent="1" vertex="1">
          <mxGeometry x="606" y="5.91" width="150" height="110" as="geometry" />
        </mxCell>
        <mxCell id="ANGQTq8wLJbYGgAcVob9-25" value="MaxPool" style="text;html=1;align=center;verticalAlign=middle;whiteSpace=wrap;rounded=0;strokeColor=none;fontStyle=1;fontSize=15;movable=1;resizable=1;rotatable=1;deletable=1;editable=1;locked=0;connectable=1;shadow=1;fontFamily=Helvetica;" parent="1" vertex="1">
          <mxGeometry x="586" y="15.91" width="190" height="30" as="geometry" />
        </mxCell>
        <mxCell id="ANGQTq8wLJbYGgAcVob9-26" value="2 x 2 Conv" style="text;html=1;align=center;verticalAlign=middle;whiteSpace=wrap;rounded=0;strokeColor=none;movable=1;resizable=1;rotatable=1;deletable=1;editable=1;locked=0;connectable=1;shadow=1;fontFamily=Helvetica;" parent="1" vertex="1">
          <mxGeometry x="586" y="45.91" width="190" height="30" as="geometry" />
        </mxCell>
        <mxCell id="ANGQTq8wLJbYGgAcVob9-27" value="&lt;div&gt;&lt;div&gt;Stride = 2&lt;/div&gt;&lt;/div&gt;" style="text;html=1;align=center;verticalAlign=middle;whiteSpace=wrap;rounded=0;strokeColor=none;movable=1;resizable=1;rotatable=1;deletable=1;editable=1;locked=0;connectable=1;shadow=1;fontFamily=Helvetica;" parent="1" vertex="1">
          <mxGeometry x="586" y="75.91" width="190" height="30" as="geometry" />
        </mxCell>
        <mxCell id="ANGQTq8wLJbYGgAcVob9-45" value="" style="rounded=1;whiteSpace=wrap;html=1;strokeColor=none;shadow=1;movable=1;resizable=1;rotatable=1;deletable=1;editable=1;locked=0;connectable=1;fontFamily=Helvetica;" parent="1" vertex="1">
          <mxGeometry x="150" y="160" width="120" height="60" as="geometry" />
        </mxCell>
        <mxCell id="ANGQTq8wLJbYGgAcVob9-46" value="8" style="text;html=1;align=center;verticalAlign=middle;whiteSpace=wrap;rounded=0;strokeColor=none;shadow=1;fontStyle=1;fontColor=#3498DB;fontSize=16;movable=1;resizable=1;rotatable=1;deletable=1;editable=1;locked=0;connectable=1;fontFamily=Helvetica;" parent="1" vertex="1">
          <mxGeometry x="157.5" y="160" width="105" height="30" as="geometry" />
        </mxCell>
        <mxCell id="ANGQTq8wLJbYGgAcVob9-47" value="Conv Layers" style="text;html=1;align=center;verticalAlign=middle;whiteSpace=wrap;rounded=0;strokeColor=none;shadow=1;movable=1;resizable=1;rotatable=1;deletable=1;editable=1;locked=0;connectable=1;fontFamily=Helvetica;" parent="1" vertex="1">
          <mxGeometry x="157.5" y="180" width="105" height="30" as="geometry" />
        </mxCell>
        <mxCell id="ANGQTq8wLJbYGgAcVob9-48" value="" style="rounded=1;whiteSpace=wrap;html=1;strokeColor=none;shadow=1;movable=1;resizable=1;rotatable=1;deletable=1;editable=1;locked=0;connectable=1;fontFamily=Helvetica;" parent="1" vertex="1">
          <mxGeometry x="280" y="160" width="120" height="60" as="geometry" />
        </mxCell>
        <mxCell id="ANGQTq8wLJbYGgAcVob9-49" value="4" style="text;html=1;align=center;verticalAlign=middle;whiteSpace=wrap;rounded=0;strokeColor=none;shadow=1;fontStyle=1;fontColor=#3498DB;fontSize=16;movable=1;resizable=1;rotatable=1;deletable=1;editable=1;locked=0;connectable=1;fontFamily=Helvetica;" parent="1" vertex="1">
          <mxGeometry x="287.5" y="160" width="105" height="30" as="geometry" />
        </mxCell>
        <mxCell id="ANGQTq8wLJbYGgAcVob9-50" value="Pool Layers" style="text;html=1;align=center;verticalAlign=middle;whiteSpace=wrap;rounded=0;strokeColor=none;shadow=1;movable=1;resizable=1;rotatable=1;deletable=1;editable=1;locked=0;connectable=1;fontFamily=Helvetica;" parent="1" vertex="1">
          <mxGeometry x="287.5" y="180" width="105" height="30" as="geometry" />
        </mxCell>
        <mxCell id="ANGQTq8wLJbYGgAcVob9-51" value="" style="rounded=1;whiteSpace=wrap;html=1;strokeColor=none;shadow=1;movable=1;resizable=1;rotatable=1;deletable=1;editable=1;locked=0;connectable=1;fontFamily=Helvetica;" parent="1" vertex="1">
          <mxGeometry x="410" y="160" width="120" height="60" as="geometry" />
        </mxCell>
        <mxCell id="ANGQTq8wLJbYGgAcVob9-52" value="2" style="text;html=1;align=center;verticalAlign=middle;whiteSpace=wrap;rounded=0;strokeColor=none;shadow=1;fontStyle=1;fontColor=#3498DB;fontSize=16;movable=1;resizable=1;rotatable=1;deletable=1;editable=1;locked=0;connectable=1;fontFamily=Helvetica;" parent="1" vertex="1">
          <mxGeometry x="417.5" y="160" width="105" height="30" as="geometry" />
        </mxCell>
        <mxCell id="ANGQTq8wLJbYGgAcVob9-53" value="FC Layers" style="text;html=1;align=center;verticalAlign=middle;whiteSpace=wrap;rounded=0;strokeColor=none;shadow=1;movable=1;resizable=1;rotatable=1;deletable=1;editable=1;locked=0;connectable=1;fontFamily=Helvetica;" parent="1" vertex="1">
          <mxGeometry x="417.5" y="180" width="105" height="30" as="geometry" />
        </mxCell>
        <mxCell id="ANGQTq8wLJbYGgAcVob9-54" value="" style="rounded=1;whiteSpace=wrap;html=1;strokeColor=none;shadow=1;movable=1;resizable=1;rotatable=1;deletable=1;editable=1;locked=0;connectable=1;fontFamily=Helvetica;" parent="1" vertex="1">
          <mxGeometry x="540" y="160" width="120" height="60" as="geometry" />
        </mxCell>
        <mxCell id="ANGQTq8wLJbYGgAcVob9-55" value="128" style="text;html=1;align=center;verticalAlign=middle;whiteSpace=wrap;rounded=0;strokeColor=none;shadow=1;fontStyle=1;fontColor=#3498DB;fontSize=16;movable=1;resizable=1;rotatable=1;deletable=1;editable=1;locked=0;connectable=1;fontFamily=Helvetica;" parent="1" vertex="1">
          <mxGeometry x="547.5" y="160" width="105" height="30" as="geometry" />
        </mxCell>
        <mxCell id="ANGQTq8wLJbYGgAcVob9-56" value="Feature Dim" style="text;html=1;align=center;verticalAlign=middle;whiteSpace=wrap;rounded=0;strokeColor=none;shadow=1;movable=1;resizable=1;rotatable=1;deletable=1;editable=1;locked=0;connectable=1;fontFamily=Helvetica;" parent="1" vertex="1">
          <mxGeometry x="547.5" y="180" width="105" height="30" as="geometry" />
        </mxCell>
        <mxCell id="ANGQTq8wLJbYGgAcVob9-57" value="" style="rounded=1;whiteSpace=wrap;html=1;strokeColor=none;shadow=1;movable=1;resizable=1;rotatable=1;deletable=1;editable=1;locked=0;connectable=1;fontFamily=Helvetica;" parent="1" vertex="1">
          <mxGeometry x="670" y="160" width="120" height="60" as="geometry" />
        </mxCell>
        <mxCell id="ANGQTq8wLJbYGgAcVob9-58" value="4" style="text;html=1;align=center;verticalAlign=middle;whiteSpace=wrap;rounded=0;strokeColor=none;shadow=1;fontStyle=1;fontColor=#3498DB;fontSize=16;movable=1;resizable=1;rotatable=1;deletable=1;editable=1;locked=0;connectable=1;fontFamily=Helvetica;" parent="1" vertex="1">
          <mxGeometry x="677.5" y="160" width="105" height="30" as="geometry" />
        </mxCell>
        <mxCell id="ANGQTq8wLJbYGgAcVob9-59" value="Classes" style="text;html=1;align=center;verticalAlign=middle;whiteSpace=wrap;rounded=0;strokeColor=none;shadow=1;movable=1;resizable=1;rotatable=1;deletable=1;editable=1;locked=0;connectable=1;fontFamily=Helvetica;" parent="1" vertex="1">
          <mxGeometry x="677.5" y="180" width="105" height="30" as="geometry" />
        </mxCell>
        <mxCell id="ANGQTq8wLJbYGgAcVob9-60" value="" style="rounded=1;whiteSpace=wrap;html=1;strokeColor=none;fillColor=#F8F9FA;shadow=1;movable=1;resizable=1;rotatable=1;deletable=1;editable=1;locked=0;connectable=1;fontFamily=Helvetica;" parent="1" vertex="1">
          <mxGeometry x="-20" y="280" width="990" height="60" as="geometry" />
        </mxCell>
        <mxCell id="ANGQTq8wLJbYGgAcVob9-62" value="Input" style="text;html=1;align=center;verticalAlign=middle;whiteSpace=wrap;rounded=0;strokeColor=none;shadow=1;fontStyle=1;movable=1;resizable=1;rotatable=1;deletable=1;editable=1;locked=0;connectable=1;fontFamily=Helvetica;" parent="1" vertex="1">
          <mxGeometry x="160" y="295" width="42.5" height="30" as="geometry" />
        </mxCell>
        <mxCell id="ANGQTq8wLJbYGgAcVob9-64" value="Convolution" style="text;html=1;align=center;verticalAlign=middle;whiteSpace=wrap;rounded=0;strokeColor=none;shadow=1;fontStyle=1;movable=1;resizable=1;rotatable=1;deletable=1;editable=1;locked=0;connectable=1;fontFamily=Helvetica;" parent="1" vertex="1">
          <mxGeometry x="280" y="295" width="82.5" height="30" as="geometry" />
        </mxCell>
        <mxCell id="ANGQTq8wLJbYGgAcVob9-67" value="Pooling" style="text;html=1;align=center;verticalAlign=middle;whiteSpace=wrap;rounded=0;strokeColor=none;shadow=1;fontStyle=1;movable=1;resizable=1;rotatable=1;deletable=1;editable=1;locked=0;connectable=1;fontFamily=Helvetica;" parent="1" vertex="1">
          <mxGeometry x="447.5" y="300" width="52.5" height="20" as="geometry" />
        </mxCell>
        <mxCell id="ANGQTq8wLJbYGgAcVob9-70" value="Fully Connected" style="text;html=1;align=center;verticalAlign=middle;whiteSpace=wrap;rounded=0;strokeColor=none;shadow=1;fontStyle=1;movable=1;resizable=1;rotatable=1;deletable=1;editable=1;locked=0;connectable=1;fontFamily=Helvetica;" parent="1" vertex="1">
          <mxGeometry x="570" y="295" width="112.5" height="30" as="geometry" />
        </mxCell>
        <mxCell id="ANGQTq8wLJbYGgAcVob9-72" value="Output" style="text;html=1;align=center;verticalAlign=middle;whiteSpace=wrap;rounded=0;strokeColor=none;shadow=1;fontStyle=1;movable=1;resizable=1;rotatable=1;deletable=1;editable=1;locked=0;connectable=1;fontFamily=Helvetica;" parent="1" vertex="1">
          <mxGeometry x="750" y="295" width="67.5" height="30" as="geometry" />
        </mxCell>
        <mxCell id="ANGQTq8wLJbYGgAcVob9-73" value="ScaloNet: Convolutional Neural Network Architecture" style="text;html=1;align=center;verticalAlign=middle;whiteSpace=wrap;rounded=0;fontStyle=1;fontSize=32;movable=1;resizable=1;rotatable=1;deletable=1;editable=1;locked=0;connectable=1;shadow=1;fontFamily=Helvetica;" parent="1" vertex="1">
          <mxGeometry x="-58.75" y="-110" width="960" height="55" as="geometry" />
        </mxCell>
        <mxCell id="ANGQTq8wLJbYGgAcVob9-76" value="&lt;div&gt;&lt;br&gt;&lt;/div&gt;" style="rounded=1;whiteSpace=wrap;html=1;strokeColor=none;fillColor=#B8E9E9;shadow=1;movable=1;resizable=1;rotatable=1;deletable=1;editable=1;locked=0;connectable=1;fontFamily=Helvetica;" parent="1" vertex="1">
          <mxGeometry x="-253.5" y="0.9099999999999966" width="145" height="120" as="geometry" />
        </mxCell>
        <mxCell id="ANGQTq8wLJbYGgAcVob9-77" value="Conv Block 1" style="text;html=1;align=center;verticalAlign=middle;whiteSpace=wrap;rounded=0;strokeColor=none;fontStyle=1;fontSize=15;movable=1;resizable=1;rotatable=1;deletable=1;editable=1;locked=0;connectable=1;shadow=1;fontFamily=Helvetica;" parent="1" vertex="1">
          <mxGeometry x="-276" y="9.999999999999996" width="190" height="30" as="geometry" />
        </mxCell>
        <mxCell id="ANGQTq8wLJbYGgAcVob9-78" value="3 x 3 Conv" style="text;html=1;align=center;verticalAlign=middle;whiteSpace=wrap;rounded=0;strokeColor=none;movable=1;resizable=1;rotatable=1;deletable=1;editable=1;locked=0;connectable=1;shadow=1;fontFamily=Helvetica;" parent="1" vertex="1">
          <mxGeometry x="-276" y="70" width="190" height="30" as="geometry" />
        </mxCell>
        <mxCell id="ANGQTq8wLJbYGgAcVob9-79" value="&lt;br&gt;&lt;div&gt;&lt;div&gt;3 → 16 → 16&lt;/div&gt;&lt;div&gt;&lt;br&gt;&lt;/div&gt;&lt;/div&gt;" style="text;html=1;align=center;verticalAlign=middle;whiteSpace=wrap;rounded=0;strokeColor=none;movable=1;resizable=1;rotatable=1;deletable=1;editable=1;locked=0;connectable=1;shadow=1;fontFamily=Helvetica;" parent="1" vertex="1">
          <mxGeometry x="-276" y="40" width="190" height="30" as="geometry" />
        </mxCell>
        <mxCell id="ANGQTq8wLJbYGgAcVob9-80" value="&lt;div&gt;&lt;br&gt;&lt;/div&gt;" style="rounded=1;whiteSpace=wrap;html=1;strokeColor=none;fillColor=#FF9A9E;shadow=1;movable=1;resizable=1;rotatable=1;deletable=1;editable=1;locked=0;connectable=1;fontFamily=Helvetica;" parent="1" vertex="1">
          <mxGeometry x="-423" y="0.9100000000000001" width="145" height="120" as="geometry" />
        </mxCell>
        <mxCell id="ANGQTq8wLJbYGgAcVob9-81" value="Input" style="text;html=1;align=center;verticalAlign=middle;whiteSpace=wrap;rounded=0;strokeColor=none;fontStyle=1;fontSize=15;movable=1;resizable=1;rotatable=1;deletable=1;editable=1;locked=0;connectable=1;shadow=1;fontFamily=Helvetica;" parent="1" vertex="1">
          <mxGeometry x="-445.5" y="10" width="190" height="30" as="geometry" />
        </mxCell>
        <mxCell id="ANGQTq8wLJbYGgAcVob9-82" value="3 Channels" style="text;html=1;align=center;verticalAlign=middle;whiteSpace=wrap;rounded=0;strokeColor=none;movable=1;resizable=1;rotatable=1;deletable=1;editable=1;locked=0;connectable=1;shadow=1;fontFamily=Helvetica;" parent="1" vertex="1">
          <mxGeometry x="-445.5" y="70" width="190" height="30" as="geometry" />
        </mxCell>
        <mxCell id="ANGQTq8wLJbYGgAcVob9-83" value="&lt;div&gt;&lt;div&gt;RGB Image&lt;/div&gt;&lt;/div&gt;" style="text;html=1;align=center;verticalAlign=middle;whiteSpace=wrap;rounded=0;strokeColor=none;movable=1;resizable=1;rotatable=1;deletable=1;editable=1;locked=0;connectable=1;shadow=1;fontFamily=Helvetica;" parent="1" vertex="1">
          <mxGeometry x="-445.5" y="40" width="190" height="30" as="geometry" />
        </mxCell>
        <mxCell id="ANGQTq8wLJbYGgAcVob9-84" value="" style="shape=flexArrow;endArrow=classic;html=1;rounded=0;fillColor=#34495E;strokeColor=none;movable=1;resizable=1;rotatable=1;deletable=1;editable=1;locked=0;connectable=1;shadow=1;fontFamily=Helvetica;" parent="1" edge="1">
          <mxGeometry width="50" height="50" relative="1" as="geometry">
            <mxPoint x="-275.5" y="54.79999999999998" as="sourcePoint" />
            <mxPoint x="-255.5" y="54.79999999999998" as="targetPoint" />
          </mxGeometry>
        </mxCell>
        <mxCell id="ANGQTq8wLJbYGgAcVob9-85" value="" style="shape=flexArrow;endArrow=classic;html=1;rounded=0;fillColor=#34495E;strokeColor=none;movable=1;resizable=1;rotatable=1;deletable=1;editable=1;locked=0;connectable=1;shadow=1;fontFamily=Helvetica;" parent="1" edge="1">
          <mxGeometry width="50" height="50" relative="1" as="geometry">
            <mxPoint x="-106" y="54.800000000000004" as="sourcePoint" />
            <mxPoint x="-86" y="54.800000000000004" as="targetPoint" />
          </mxGeometry>
        </mxCell>
        <mxCell id="ANGQTq8wLJbYGgAcVob9-86" value="" style="shape=flexArrow;endArrow=classic;html=1;rounded=0;fillColor=#34495E;strokeColor=none;movable=1;resizable=1;rotatable=1;deletable=1;editable=1;locked=0;connectable=1;shadow=1;fontFamily=Helvetica;" parent="1" edge="1">
          <mxGeometry width="50" height="50" relative="1" as="geometry">
            <mxPoint x="68" y="55.67" as="sourcePoint" />
            <mxPoint x="88" y="55.67" as="targetPoint" />
          </mxGeometry>
        </mxCell>
        <mxCell id="ANGQTq8wLJbYGgAcVob9-87" value="" style="shape=flexArrow;endArrow=classic;html=1;rounded=0;fillColor=#34495E;strokeColor=none;movable=1;resizable=1;rotatable=1;deletable=1;editable=1;locked=0;connectable=1;shadow=1;fontFamily=Helvetica;" parent="1" edge="1">
          <mxGeometry width="50" height="50" relative="1" as="geometry">
            <mxPoint x="238" y="56.529999999999994" as="sourcePoint" />
            <mxPoint x="258" y="56.529999999999994" as="targetPoint" />
          </mxGeometry>
        </mxCell>
        <mxCell id="ANGQTq8wLJbYGgAcVob9-88" value="" style="shape=flexArrow;endArrow=classic;html=1;rounded=0;fillColor=#34495E;strokeColor=none;movable=1;resizable=1;rotatable=1;deletable=1;editable=1;locked=0;connectable=1;shadow=1;fontFamily=Helvetica;" parent="1" edge="1">
          <mxGeometry width="50" height="50" relative="1" as="geometry">
            <mxPoint x="414" y="59.709999999999994" as="sourcePoint" />
            <mxPoint x="434" y="59.709999999999994" as="targetPoint" />
          </mxGeometry>
        </mxCell>
        <mxCell id="ANGQTq8wLJbYGgAcVob9-89" value="" style="shape=flexArrow;endArrow=classic;html=1;rounded=0;strokeColor=none;fillColor=#34495E;movable=1;resizable=1;rotatable=1;deletable=1;editable=1;locked=0;connectable=1;shadow=1;fontFamily=Helvetica;" parent="1" edge="1">
          <mxGeometry width="50" height="50" relative="1" as="geometry">
            <mxPoint x="583.5" y="59.8" as="sourcePoint" />
            <mxPoint x="603.5" y="59.8" as="targetPoint" />
          </mxGeometry>
        </mxCell>
        <mxCell id="ANGQTq8wLJbYGgAcVob9-94" value="&lt;div&gt;&lt;br&gt;&lt;/div&gt;" style="rounded=1;whiteSpace=wrap;html=1;strokeColor=none;fillColor=#B8E9E9;shadow=1;movable=1;resizable=1;rotatable=1;deletable=1;editable=1;locked=0;connectable=1;fontFamily=Helvetica;" parent="1" vertex="1">
          <mxGeometry x="781" width="145" height="120" as="geometry" />
        </mxCell>
        <mxCell id="ANGQTq8wLJbYGgAcVob9-95" value="Deep Conv" style="text;html=1;align=center;verticalAlign=middle;whiteSpace=wrap;rounded=0;strokeColor=none;fontStyle=1;fontSize=15;movable=1;resizable=1;rotatable=1;deletable=1;editable=1;locked=0;connectable=1;shadow=1;fontFamily=Helvetica;" parent="1" vertex="1">
          <mxGeometry x="756" y="10" width="190" height="30" as="geometry" />
        </mxCell>
        <mxCell id="ANGQTq8wLJbYGgAcVob9-96" value="3 x 3 Conv" style="text;html=1;align=center;verticalAlign=middle;whiteSpace=wrap;rounded=0;strokeColor=none;movable=1;resizable=1;rotatable=1;deletable=1;editable=1;locked=0;connectable=1;shadow=1;fontFamily=Helvetica;" parent="1" vertex="1">
          <mxGeometry x="756" y="70" width="190" height="30" as="geometry" />
        </mxCell>
        <mxCell id="ANGQTq8wLJbYGgAcVob9-97" value="&lt;br&gt;&lt;div&gt;&lt;div&gt;64 → 128 → 128&lt;/div&gt;&lt;div&gt;&lt;br&gt;&lt;/div&gt;&lt;/div&gt;" style="text;html=1;align=center;verticalAlign=middle;whiteSpace=wrap;rounded=0;strokeColor=none;movable=1;resizable=1;rotatable=1;deletable=1;editable=1;locked=0;connectable=1;shadow=1;fontFamily=Helvetica;" parent="1" vertex="1">
          <mxGeometry x="756" y="40" width="190" height="30" as="geometry" />
        </mxCell>
        <mxCell id="ANGQTq8wLJbYGgAcVob9-98" value="" style="group;fillColor=none;container=0;strokeColor=none;movable=1;resizable=1;rotatable=1;deletable=1;editable=1;locked=0;connectable=1;shadow=1;fontFamily=Helvetica;" parent="1" vertex="1" connectable="0">
          <mxGeometry x="1086" y="15" width="150" height="80" as="geometry" />
        </mxCell>
        <mxCell id="ANGQTq8wLJbYGgAcVob9-99" value="&lt;div&gt;&lt;br&gt;&lt;/div&gt;" style="rounded=1;whiteSpace=wrap;html=1;container=0;strokeColor=none;fillColor=#FFDDC4;shadow=1;movable=1;resizable=1;rotatable=1;deletable=1;editable=1;locked=0;connectable=1;fontFamily=Helvetica;" parent="1" vertex="1">
          <mxGeometry x="949.7894736842104" y="15" width="118.42105263157895" height="80" as="geometry" />
        </mxCell>
        <mxCell id="ANGQTq8wLJbYGgAcVob9-100" value="Global Pool" style="text;html=1;align=center;verticalAlign=middle;whiteSpace=wrap;rounded=0;container=0;strokeColor=none;fontStyle=1;fontSize=15;movable=1;resizable=1;rotatable=1;deletable=1;editable=1;locked=0;connectable=1;shadow=1;fontFamily=Helvetica;" parent="1" vertex="1">
          <mxGeometry x="934" y="22.272727272727252" width="150" height="21.81818181818182" as="geometry" />
        </mxCell>
        <mxCell id="ANGQTq8wLJbYGgAcVob9-101" value="Adaptive" style="text;html=1;align=center;verticalAlign=middle;whiteSpace=wrap;rounded=0;container=0;strokeColor=none;movable=1;resizable=1;rotatable=1;deletable=1;editable=1;locked=0;connectable=1;shadow=1;fontFamily=Helvetica;" parent="1" vertex="1">
          <mxGeometry x="934" y="44.090909090909065" width="150" height="21.81818181818182" as="geometry" />
        </mxCell>
        <mxCell id="ANGQTq8wLJbYGgAcVob9-102" value="Avg Pool" style="text;html=1;align=center;verticalAlign=middle;whiteSpace=wrap;rounded=0;container=0;strokeColor=none;movable=1;resizable=1;rotatable=1;deletable=1;editable=1;locked=0;connectable=1;shadow=1;fontFamily=Helvetica;" parent="1" vertex="1">
          <mxGeometry x="934" y="65.91000000000003" width="150" height="21.81818181818182" as="geometry" />
        </mxCell>
        <mxCell id="ANGQTq8wLJbYGgAcVob9-103" value="&lt;div&gt;&lt;br&gt;&lt;/div&gt;" style="rounded=1;whiteSpace=wrap;html=1;container=0;fillColor=#ADF9A8;strokeColor=none;shadow=1;movable=1;resizable=1;rotatable=1;deletable=1;editable=1;locked=0;connectable=1;fontFamily=Helvetica;" parent="1" vertex="1">
          <mxGeometry x="1235.7894736842104" y="15" width="118.42105263157895" height="80" as="geometry" />
        </mxCell>
        <mxCell id="ANGQTq8wLJbYGgAcVob9-104" value="Classifier" style="text;html=1;align=center;verticalAlign=middle;whiteSpace=wrap;rounded=0;container=0;strokeColor=none;fontStyle=1;fontSize=15;movable=1;resizable=1;rotatable=1;deletable=1;editable=1;locked=0;connectable=1;shadow=1;fontFamily=Helvetica;" parent="1" vertex="1">
          <mxGeometry x="1220" y="22.272727272727252" width="150" height="21.81818181818182" as="geometry" />
        </mxCell>
        <mxCell id="ANGQTq8wLJbYGgAcVob9-105" value="ReLU + Linear" style="text;html=1;align=center;verticalAlign=middle;whiteSpace=wrap;rounded=0;container=0;strokeColor=none;movable=1;resizable=1;rotatable=1;deletable=1;editable=1;locked=0;connectable=1;shadow=1;fontFamily=Helvetica;" parent="1" vertex="1">
          <mxGeometry x="1220" y="65.91000000000008" width="150" height="21.81818181818182" as="geometry" />
        </mxCell>
        <mxCell id="ANGQTq8wLJbYGgAcVob9-106" value="&lt;div&gt;&lt;br&gt;&lt;/div&gt;" style="rounded=1;whiteSpace=wrap;html=1;fillColor=#9EB3EC;strokeColor=none;shadow=1;movable=1;resizable=1;rotatable=1;deletable=1;editable=1;locked=0;connectable=1;fontFamily=Helvetica;" parent="1" vertex="1">
          <mxGeometry x="1092.7894736842106" y="15" width="118.42105263157895" height="80" as="geometry" />
        </mxCell>
        <mxCell id="ANGQTq8wLJbYGgAcVob9-107" value="Embedding" style="text;html=1;align=center;verticalAlign=middle;whiteSpace=wrap;rounded=0;strokeColor=none;fontStyle=1;fontSize=15;movable=1;resizable=1;rotatable=1;deletable=1;editable=1;locked=0;connectable=1;shadow=1;fontFamily=Helvetica;" parent="1" vertex="1">
          <mxGeometry x="1077" y="32.27272727272728" width="150" height="21.81818181818182" as="geometry" />
        </mxCell>
        <mxCell id="ANGQTq8wLJbYGgAcVob9-108" value="128 x 128" style="text;html=1;align=center;verticalAlign=middle;whiteSpace=wrap;rounded=0;strokeColor=none;movable=1;resizable=1;rotatable=1;deletable=1;editable=1;locked=0;connectable=1;shadow=1;fontFamily=Helvetica;" parent="1" vertex="1">
          <mxGeometry x="1077" y="54.09090909090909" width="150" height="21.81818181818182" as="geometry" />
        </mxCell>
        <mxCell id="ANGQTq8wLJbYGgAcVob9-109" value="" style="shape=flexArrow;endArrow=classic;html=1;rounded=0;strokeColor=none;fillColor=#34495E;movable=1;resizable=1;rotatable=1;deletable=1;editable=1;locked=0;connectable=1;shadow=1;fontFamily=Helvetica;" parent="1" edge="1">
          <mxGeometry width="50" height="50" relative="1" as="geometry">
            <mxPoint x="758" y="60.74000000000001" as="sourcePoint" />
            <mxPoint x="778" y="60.74000000000001" as="targetPoint" />
          </mxGeometry>
        </mxCell>
        <mxCell id="ANGQTq8wLJbYGgAcVob9-110" value="" style="shape=flexArrow;endArrow=classic;html=1;rounded=0;strokeColor=none;fillColor=#34495E;movable=1;resizable=1;rotatable=1;deletable=1;editable=1;locked=0;connectable=1;shadow=1;fontFamily=Helvetica;" parent="1" edge="1">
          <mxGeometry width="50" height="50" relative="1" as="geometry">
            <mxPoint x="928" y="60.74000000000001" as="sourcePoint" />
            <mxPoint x="948" y="60.74000000000001" as="targetPoint" />
          </mxGeometry>
        </mxCell>
        <mxCell id="ANGQTq8wLJbYGgAcVob9-111" value="" style="shape=flexArrow;endArrow=classic;html=1;rounded=0;strokeColor=none;fillColor=#34495E;movable=1;resizable=1;rotatable=1;deletable=1;editable=1;locked=0;connectable=1;shadow=1;fontFamily=Helvetica;" parent="1" edge="1">
          <mxGeometry width="50" height="50" relative="1" as="geometry">
            <mxPoint x="1070.21" y="60.74000000000001" as="sourcePoint" />
            <mxPoint x="1090.21" y="60.74000000000001" as="targetPoint" />
          </mxGeometry>
        </mxCell>
        <mxCell id="ANGQTq8wLJbYGgAcVob9-112" value="" style="shape=flexArrow;endArrow=classic;html=1;rounded=0;strokeColor=none;fillColor=#34495E;movable=1;resizable=1;rotatable=1;deletable=1;editable=1;locked=0;connectable=1;shadow=1;fontFamily=Helvetica;" parent="1" edge="1">
          <mxGeometry width="50" height="50" relative="1" as="geometry">
            <mxPoint x="1213.21" y="60.74000000000001" as="sourcePoint" />
            <mxPoint x="1233.21" y="60.74000000000001" as="targetPoint" />
          </mxGeometry>
        </mxCell>
        <mxCell id="ANGQTq8wLJbYGgAcVob9-43" value="&lt;br&gt;&lt;div&gt;&lt;div&gt;128 → 64 → 4&lt;/div&gt;&lt;div&gt;&lt;br&gt;&lt;/div&gt;&lt;/div&gt;" style="text;html=1;align=center;verticalAlign=middle;whiteSpace=wrap;rounded=0;strokeColor=none;movable=1;resizable=1;rotatable=1;deletable=1;editable=1;locked=0;connectable=1;shadow=1;fontFamily=Helvetica;" parent="1" vertex="1">
          <mxGeometry x="1200" y="40.91" width="190" height="30" as="geometry" />
        </mxCell>
        <mxCell id="ANGQTq8wLJbYGgAcVob9-113" value="&lt;span style=&quot;color: rgb(56, 58, 66); font-size: 14px; text-align: left; white-space: pre;&quot;&gt;H×W×16&lt;/span&gt;" style="text;html=1;align=center;verticalAlign=middle;whiteSpace=wrap;rounded=0;fillColor=none;labelBackgroundColor=none;fontStyle=1;movable=1;resizable=1;rotatable=1;deletable=1;editable=1;locked=0;connectable=1;shadow=1;fontFamily=Helvetica;" parent="1" vertex="1">
          <mxGeometry x="-211" y="-24.090000000000003" width="60" height="30" as="geometry" />
        </mxCell>
        <mxCell id="ANGQTq8wLJbYGgAcVob9-114" value="&lt;span style=&quot;color: rgb(56, 58, 66); font-size: 14px; font-style: normal; font-variant-ligatures: normal; font-variant-caps: normal; letter-spacing: normal; orphans: 2; text-indent: 0px; text-transform: none; widows: 2; word-spacing: 0px; -webkit-text-stroke-width: 0px; white-space: pre; text-decoration-thickness: initial; text-decoration-style: initial; text-decoration-color: initial; float: none; display: inline !important;&quot;&gt;H×W×3&lt;/span&gt;" style="text;whiteSpace=wrap;html=1;align=center;labelBackgroundColor=none;fontStyle=1;movable=1;resizable=1;rotatable=1;deletable=1;editable=1;locked=0;connectable=1;shadow=1;fontFamily=Helvetica;" parent="1" vertex="1">
          <mxGeometry x="-385.5" y="-24.09" width="70" height="40" as="geometry" />
        </mxCell>
        <mxCell id="ANGQTq8wLJbYGgAcVob9-116" value="&lt;span style=&quot;color: rgb(56, 58, 66); font-size: 14px; font-style: normal; font-variant-ligatures: normal; font-variant-caps: normal; letter-spacing: normal; orphans: 2; text-indent: 0px; text-transform: none; widows: 2; word-spacing: 0px; -webkit-text-stroke-width: 0px; white-space: pre; text-decoration-thickness: initial; text-decoration-style: initial; text-decoration-color: initial; float: none; display: inline !important;&quot;&gt;H/2×W/2×16&lt;/span&gt;" style="text;whiteSpace=wrap;html=1;align=center;labelBackgroundColor=none;fontStyle=1;movable=1;resizable=1;rotatable=1;deletable=1;editable=1;locked=0;connectable=1;shadow=1;fontFamily=Helvetica;" parent="1" vertex="1">
          <mxGeometry x="-64" y="-24.090000000000003" width="110" height="40" as="geometry" />
        </mxCell>
        <mxCell id="ANGQTq8wLJbYGgAcVob9-117" value="&lt;span style=&quot;color: rgb(56, 58, 66); font-size: 14px; font-style: normal; font-variant-ligatures: normal; font-variant-caps: normal; letter-spacing: normal; orphans: 2; text-indent: 0px; text-transform: none; widows: 2; word-spacing: 0px; -webkit-text-stroke-width: 0px; white-space: pre; text-decoration-thickness: initial; text-decoration-style: initial; text-decoration-color: initial; float: none; display: inline !important;&quot;&gt;H/2×W/2×32&lt;/span&gt;" style="text;whiteSpace=wrap;html=1;labelBackgroundColor=none;align=center;fontStyle=1;movable=1;resizable=1;rotatable=1;deletable=1;editable=1;locked=0;connectable=1;shadow=1;fontFamily=Helvetica;" parent="1" vertex="1">
          <mxGeometry x="108" y="-25" width="110" height="40" as="geometry" />
        </mxCell>
        <mxCell id="ANGQTq8wLJbYGgAcVob9-118" value="&lt;span style=&quot;color: rgb(56, 58, 66); font-size: 14px; font-style: normal; font-variant-ligatures: normal; font-variant-caps: normal; letter-spacing: normal; orphans: 2; text-indent: 0px; text-transform: none; widows: 2; word-spacing: 0px; -webkit-text-stroke-width: 0px; white-space: pre; text-decoration-thickness: initial; text-decoration-style: initial; text-decoration-color: initial; float: none; display: inline !important;&quot;&gt;H/4×W/4×32&lt;/span&gt;" style="text;whiteSpace=wrap;html=1;align=center;labelBackgroundColor=none;fontStyle=1;movable=1;resizable=1;rotatable=1;deletable=1;editable=1;locked=0;connectable=1;shadow=1;fontFamily=Helvetica;" parent="1" vertex="1">
          <mxGeometry x="285" y="-24.089999999999975" width="110" height="40" as="geometry" />
        </mxCell>
        <mxCell id="ANGQTq8wLJbYGgAcVob9-119" value="&lt;span style=&quot;color: rgb(56, 58, 66); font-size: 14px; font-style: normal; font-variant-ligatures: normal; font-variant-caps: normal; letter-spacing: normal; orphans: 2; text-indent: 0px; text-transform: none; widows: 2; word-spacing: 0px; -webkit-text-stroke-width: 0px; white-space: pre; text-decoration-thickness: initial; text-decoration-style: initial; text-decoration-color: initial; float: none; display: inline !important;&quot;&gt;H/4×W/4×64&lt;/span&gt;" style="text;whiteSpace=wrap;html=1;align=center;labelBackgroundColor=none;fontStyle=1;movable=1;resizable=1;rotatable=1;deletable=1;editable=1;locked=0;connectable=1;shadow=1;fontFamily=Helvetica;" parent="1" vertex="1">
          <mxGeometry x="453.5" y="-24.090000000000003" width="110" height="40" as="geometry" />
        </mxCell>
        <mxCell id="ANGQTq8wLJbYGgAcVob9-120" value="&lt;span style=&quot;color: rgb(56, 58, 66); font-size: 14px; font-style: normal; font-variant-ligatures: normal; font-variant-caps: normal; letter-spacing: normal; orphans: 2; text-indent: 0px; text-transform: none; widows: 2; word-spacing: 0px; -webkit-text-stroke-width: 0px; white-space: pre; text-decoration-thickness: initial; text-decoration-style: initial; text-decoration-color: initial; float: none; display: inline !important;&quot;&gt;H/8×W/8×64&lt;/span&gt;" style="text;whiteSpace=wrap;html=1;align=center;labelBackgroundColor=none;fontStyle=1;movable=1;resizable=1;rotatable=1;deletable=1;editable=1;locked=0;connectable=1;shadow=1;fontFamily=Helvetica;" parent="1" vertex="1">
          <mxGeometry x="626" y="-24.090000000000003" width="110" height="40" as="geometry" />
        </mxCell>
        <mxCell id="ANGQTq8wLJbYGgAcVob9-121" value="&lt;span style=&quot;color: rgb(56, 58, 66); font-size: 14px; font-style: normal; font-variant-ligatures: normal; font-variant-caps: normal; letter-spacing: normal; orphans: 2; text-indent: 0px; text-transform: none; widows: 2; word-spacing: 0px; -webkit-text-stroke-width: 0px; white-space: pre; text-decoration-thickness: initial; text-decoration-style: initial; text-decoration-color: initial; float: none; display: inline !important;&quot;&gt;H/8×W/8×128&lt;/span&gt;" style="text;whiteSpace=wrap;html=1;labelBackgroundColor=none;align=center;fontStyle=1;movable=1;resizable=1;rotatable=1;deletable=1;editable=1;locked=0;connectable=1;shadow=1;fontFamily=Helvetica;" parent="1" vertex="1">
          <mxGeometry x="793.5" y="-29.090000000000003" width="120" height="40" as="geometry" />
        </mxCell>
        <mxCell id="ANGQTq8wLJbYGgAcVob9-122" value="&lt;span style=&quot;color: rgb(56, 58, 66); font-size: 14px; font-style: normal; font-variant-ligatures: normal; font-variant-caps: normal; letter-spacing: normal; orphans: 2; text-indent: 0px; text-transform: none; widows: 2; word-spacing: 0px; -webkit-text-stroke-width: 0px; white-space: pre; text-decoration-thickness: initial; text-decoration-style: initial; text-decoration-color: initial; float: none; display: inline !important;&quot;&gt;1×1×128&lt;/span&gt;" style="text;whiteSpace=wrap;html=1;align=center;labelBackgroundColor=none;fontStyle=1;movable=1;resizable=1;rotatable=1;deletable=1;editable=1;locked=0;connectable=1;shadow=1;fontFamily=Helvetica;" parent="1" vertex="1">
          <mxGeometry x="964" y="-10.72999999999999" width="90" height="40" as="geometry" />
        </mxCell>
        <mxCell id="ANGQTq8wLJbYGgAcVob9-123" value="&lt;span style=&quot;color: rgb(56, 58, 66); font-size: 14px; font-style: normal; font-variant-ligatures: normal; font-variant-caps: normal; letter-spacing: normal; orphans: 2; text-indent: 0px; text-transform: none; widows: 2; word-spacing: 0px; -webkit-text-stroke-width: 0px; white-space: pre; text-decoration-thickness: initial; text-decoration-style: initial; text-decoration-color: initial; float: none; display: inline !important;&quot;&gt;128-D&lt;/span&gt;" style="text;whiteSpace=wrap;html=1;align=center;labelBackgroundColor=none;fontStyle=1;movable=1;resizable=1;rotatable=1;deletable=1;editable=1;locked=0;connectable=1;shadow=1;fontFamily=Helvetica;" parent="1" vertex="1">
          <mxGeometry x="1117" y="-10.730000000000018" width="70" height="40" as="geometry" />
        </mxCell>
        <mxCell id="ANGQTq8wLJbYGgAcVob9-124" value="&lt;span style=&quot;color: rgb(56, 58, 66); font-size: 14px; font-style: normal; font-variant-ligatures: normal; font-variant-caps: normal; letter-spacing: normal; orphans: 2; text-indent: 0px; text-transform: none; widows: 2; word-spacing: 0px; -webkit-text-stroke-width: 0px; white-space: pre; text-decoration-thickness: initial; text-decoration-style: initial; text-decoration-color: initial; float: none; display: inline !important;&quot;&gt;4 Classes&lt;/span&gt;" style="text;whiteSpace=wrap;html=1;align=center;labelBackgroundColor=none;fontStyle=1;movable=1;resizable=1;rotatable=1;deletable=1;editable=1;locked=0;connectable=1;shadow=1;fontFamily=Helvetica;" parent="1" vertex="1">
          <mxGeometry x="1245" y="-10.73" width="100" height="40" as="geometry" />
        </mxCell>
        <mxCell id="ANGQTq8wLJbYGgAcVob9-61" value="" style="rounded=1;whiteSpace=wrap;html=1;strokeColor=none;fillColor=#FF9A9E;arcSize=30;shadow=1;movable=1;resizable=1;rotatable=1;deletable=1;editable=1;locked=0;connectable=1;fontFamily=Helvetica;" parent="1" vertex="1">
          <mxGeometry x="117.5" y="295" width="40" height="30" as="geometry" />
        </mxCell>
        <mxCell id="ANGQTq8wLJbYGgAcVob9-63" value="" style="rounded=1;whiteSpace=wrap;html=1;fillColor=#B8E9E9;strokeColor=none;arcSize=30;shadow=1;movable=1;resizable=1;rotatable=1;deletable=1;editable=1;locked=0;connectable=1;fontFamily=Helvetica;" parent="1" vertex="1">
          <mxGeometry x="240" y="295" width="40" height="30" as="geometry" />
        </mxCell>
        <mxCell id="ANGQTq8wLJbYGgAcVob9-66" value="" style="rounded=1;whiteSpace=wrap;html=1;fillColor=#FFDDC4;strokeColor=none;arcSize=30;shadow=1;movable=1;resizable=1;rotatable=1;deletable=1;editable=1;locked=0;connectable=1;fontFamily=Helvetica;" parent="1" vertex="1">
          <mxGeometry x="401.25" y="295" width="40" height="30" as="geometry" />
        </mxCell>
        <mxCell id="ANGQTq8wLJbYGgAcVob9-68" value="" style="rounded=1;whiteSpace=wrap;html=1;strokeColor=none;fillColor=#9EB3EC;arcSize=30;shadow=1;movable=1;resizable=1;rotatable=1;deletable=1;editable=1;locked=0;connectable=1;fontFamily=Helvetica;" parent="1" vertex="1">
          <mxGeometry x="530" y="295" width="40" height="30" as="geometry" />
        </mxCell>
        <mxCell id="ANGQTq8wLJbYGgAcVob9-71" value="" style="rounded=1;whiteSpace=wrap;html=1;fillColor=#ADF9A8;strokeColor=none;arcSize=30;shadow=1;movable=1;resizable=1;rotatable=1;deletable=1;editable=1;locked=0;connectable=1;fontFamily=Helvetica;" parent="1" vertex="1">
          <mxGeometry x="710" y="295" width="40" height="30" as="geometry" />
        </mxCell>
      </root>
    </mxGraphModel>
  </diagram>
</mxfile>
